<?xml version="1.0" standalone="no"?>
<!DOCTYPE svg PUBLIC "-//W3C//DTD SVG 20010904//EN"
 "http://www.w3.org/TR/2001/REC-SVG-20010904/DTD/svg10.dtd">
<svg version="1.0" xmlns="http://www.w3.org/2000/svg"
 width="802.000000pt" height="1280.000000pt" viewBox="0 0 802.000000 1280.000000"
 preserveAspectRatio="xMidYMid meet">
<metadata>
Created by potrace 1.15, written by Peter Selinger 2001-2017
</metadata>
<g transform="translate(0.000000,1280.000000) scale(0.100000,-0.100000)"
fill="#ffc107" stroke="none">
<path d="M3755 12509 c-131 -160 -242 -292 -246 -295 -4 -2 -171 86 -370 196
-200 110 -366 200 -369 200 -3 0 -66 -156 -140 -346 -74 -190 -141 -348 -148
-351 -7 -3 -189 29 -405 71 -216 42 -399 78 -407 79 -13 2 -18 -43 -32 -298
-9 -165 -17 -335 -19 -377 -2 -74 -3 -77 -28 -82 -14 -3 -197 -24 -406 -46
-209 -23 -387 -45 -396 -48 -15 -6 -5 -49 77 -347 52 -187 97 -351 100 -365 5
-24 -5 -30 -298 -160 -167 -73 -340 -151 -386 -172 l-83 -37 211 -316 c116
-174 210 -320 208 -324 -2 -5 -138 -129 -303 -276 -165 -147 -304 -271 -308
-275 -4 -4 127 -114 293 -244 165 -131 300 -241 300 -246 0 -5 -92 -168 -204
-362 -198 -341 -204 -353 -183 -364 12 -6 176 -68 364 -139 318 -118 342 -129
337 -149 -30 -120 -161 -783 -156 -787 4 -4 167 -15 362 -25 l355 -18 31 -30
c30 -30 31 -36 48 -186 10 -85 30 -256 45 -379 l26 -224 35 -3 c42 -3 312 63
322 80 6 8 8 8 8 -1 0 -6 -94 -326 -209 -710 -115 -384 -404 -1346 -641 -2138
-237 -792 -517 -1725 -621 -2074 -105 -348 -189 -634 -187 -636 2 -1 178 152
393 341 214 189 391 341 392 337 1 -5 45 -224 98 -488 53 -264 98 -481 100
-483 2 -2 6 5 9 15 9 31 427 1428 816 2728 204 682 457 1528 562 1880 105 352
195 645 200 652 10 13 380 245 418 262 19 9 42 8 94 -1 l69 -13 254 -267 254
-268 208 248 c115 136 217 254 227 263 30 26 136 34 176 13 128 -65 480 -270
487 -283 5 -9 38 -126 74 -261 77 -290 141 -525 397 -1475 105 -390 223 -827
261 -970 39 -143 101 -375 139 -515 38 -140 94 -349 125 -465 31 -115 69 -257
85 -315 16 -58 61 -224 100 -370 152 -565 212 -785 215 -788 4 -4 27 94 140
587 47 206 87 376 88 378 2 1 174 -157 383 -351 208 -194 380 -352 382 -350 2
1 -10 51 -27 111 -16 59 -55 200 -85 313 -30 113 -78 291 -106 395 -28 105
-82 305 -120 445 -38 140 -123 458 -190 705 -67 248 -152 565 -190 705 -38
140 -92 341 -120 445 -28 105 -82 305 -120 445 -38 140 -155 575 -260 965
-253 938 -242 896 -237 901 2 2 72 -10 155 -28 84 -17 154 -30 156 -27 2 2 13
166 25 363 12 197 26 367 32 377 6 13 21 19 43 19 18 0 57 4 87 9 30 5 108 14
174 21 66 6 154 15 195 20 41 5 132 15 203 22 74 7 127 16 127 23 0 5 -7 33
-15 60 -14 47 -14 18 0 -37 6 -24 4 -25 -57 -31 -35 -3 -153 -16 -263 -27
-373 -39 -354 -38 -342 -18 14 21 43 26 542 79 55 6 101 12 103 14 2 2 -22 94
-53 206 -31 112 -72 262 -92 333 l-35 130 26 50 26 51 347 154 c192 85 349
156 351 157 2 1 -88 139 -199 306 -112 166 -204 314 -206 328 -2 21 39 62 297
290 164 146 298 270 297 277 -1 8 -525 429 -594 477 -1 1 92 163 206 361 114
198 207 361 205 363 -1 2 -163 64 -359 137 -196 74 -359 135 -361 137 -2 2 34
184 80 404 46 219 81 402 77 405 -3 3 -177 14 -386 24 -209 10 -381 19 -383
20 -2 2 -23 173 -48 381 -24 209 -46 393 -49 410 l-6 32 -52 -14 c-410 -110
-693 -181 -699 -176 -4 4 -83 171 -177 371 -94 200 -173 366 -175 368 -2 3
-152 -89 -331 -203 -188 -119 -330 -203 -333 -197 -6 9 -564 603 -566 603 -1
0 -109 -131 -241 -291z m2592 -6231 c-2 -13 -4 -5 -4 17 -1 22 1 32 4 23 2
-10 2 -28 0 -40z m-10 -130 c-2 -18 -4 -4 -4 32 0 36 2 50 4 33 2 -18 2 -48 0
-65z"/>
<path d="M7044 7314 c-18 -14 -18 -14 6 -3 31 14 36 19 24 19 -6 0 -19 -7 -30
-16z"/>
<path d="M7031 7254 c6 -21 13 -41 16 -44 9 -9 -9 65 -18 74 -4 5 -3 -8 2 -30z"/>
<path d="M7171 6734 c0 -11 3 -14 6 -6 3 7 2 16 -1 19 -3 4 -6 -2 -5 -13z"/>
<path d="M6618 6533 c7 -3 16 -2 19 1 4 3 -2 6 -13 5 -11 0 -14 -3 -6 -6z"/>
</g>
</svg>
