<?xml version="1.0" encoding="iso-8859-1"?>
<!-- Generator: Adobe Illustrator 26.0.0, SVG Export Plug-In . SVG Version: 6.00 Build 0)  -->
<svg version="1.1" id="Layer_1" xmlns="http://www.w3.org/2000/svg" xmlns:xlink="http://www.w3.org/1999/xlink" x="0px" y="0px"
	 viewBox="0 0 1000 1000" style="enable-background:new 0 0 1000 1000;" xml:space="preserve">
<linearGradient id="SVGID_1_" gradientUnits="userSpaceOnUse" x1="-1" y1="500" x2="1001" y2="500">
	<stop  offset="0" style="stop-color:#61FD7D"/>
	<stop  offset="1" style="stop-color:#2BB826"/>
</linearGradient>
<rect x="-1" y="1.5" style="display:none;fill:url(#SVGID_1_);" width="1002" height="997"/>
<g style="display:none;">
	<g style="display:inline;">
		<g>
			<polygon style="fill:#606060;" points="436.588,942.685 426.857,965.164 421.72,965.164 412.021,942.685 417.641,942.685 
				424.481,958.742 431.417,942.685 			"/>
			<path style="fill:#606060;" d="M453.638,957.682h-13.07c0.481,2.152,2.312,3.468,4.946,3.468c1.83,0,3.147-0.546,4.335-1.67
				l2.665,2.89c-1.606,1.831-4.014,2.794-7.129,2.794c-5.973,0-9.859-3.757-9.859-8.896c0-5.17,3.95-8.895,9.217-8.895
				c5.073,0,8.992,3.404,8.992,8.96C453.734,956.719,453.67,957.265,453.638,957.682 M440.503,954.76h8.51
				c-0.354-2.184-1.992-3.597-4.239-3.597C442.494,951.164,440.856,952.544,440.503,954.76"/>
			<path style="fill:#606060;" d="M455.787,956.269c0-5.202,4.014-8.895,9.634-8.895c3.629,0,6.487,1.574,7.739,4.4l-3.886,2.087
				c-0.932-1.638-2.312-2.376-3.886-2.376c-2.537,0-4.528,1.766-4.528,4.785c0,3.019,1.991,4.785,4.528,4.785
				c1.574,0,2.954-0.707,3.886-2.376l3.886,2.119c-1.252,2.762-4.111,4.367-7.739,4.367
				C459.801,965.164,455.787,961.472,455.787,956.269"/>
			<path style="fill:#606060;" d="M487.449,964.073c-1.028,0.739-2.537,1.092-4.079,1.092c-4.078,0-6.455-2.087-6.455-6.198v-7.097
				h-2.666v-3.854h2.666v-4.206h5.01v4.206h4.303v3.854h-4.303v7.033c0,1.477,0.802,2.28,2.151,2.28
				c0.738,0,1.477-0.224,2.023-0.642L487.449,964.073z"/>
		</g>
		<path style="fill:#606060;" d="M521.83,947.631v4.624c-0.417-0.032-0.738-0.064-1.124-0.064c-2.761,0-4.592,1.509-4.592,4.817
			v8.157h-5.01v-17.277h4.785v2.28C517.109,948.498,519.164,947.631,521.83,947.631"/>
		<path style="fill:#606060;" d="M523.274,962.564l1.766-3.918c1.895,1.381,4.721,2.344,7.418,2.344
			c3.083,0,4.335-1.028,4.335-2.409c0-4.207-13.07-1.316-13.07-9.666c0-3.821,3.083-7.001,9.473-7.001
			c2.826,0,5.717,0.674,7.804,1.991l-1.606,3.95c-2.087-1.188-4.239-1.766-6.23-1.766c-3.083,0-4.271,1.156-4.271,2.569
			c0,4.143,13.07,1.284,13.07,9.538c0,3.758-3.115,6.969-9.537,6.969C528.862,965.165,525.265,964.105,523.274,962.564"/>
		<path style="fill:#606060;" d="M562,957.682h-13.07c0.481,2.152,2.312,3.468,4.946,3.468c1.83,0,3.147-0.546,4.335-1.67
			l2.666,2.89c-1.606,1.831-4.014,2.794-7.129,2.794c-5.973,0-9.859-3.757-9.859-8.896c0-5.17,3.95-8.895,9.216-8.895
			c5.074,0,8.992,3.404,8.992,8.96C562.097,956.719,562.032,957.265,562,957.682 M548.865,954.76h8.51
			c-0.353-2.184-1.991-3.597-4.239-3.597C550.856,951.164,549.219,952.544,548.865,954.76"/>
		<path style="fill:#606060;" d="M582.262,957.682h-13.07c0.481,2.152,2.312,3.468,4.945,3.468c1.831,0,3.147-0.546,4.335-1.67
			l2.666,2.89c-1.606,1.831-4.014,2.794-7.129,2.794c-5.973,0-9.859-3.757-9.859-8.896c0-5.17,3.95-8.895,9.217-8.895
			c5.074,0,8.992,3.404,8.992,8.96C582.358,956.719,582.294,957.265,582.262,957.682 M569.127,954.76h8.51
			c-0.353-2.184-1.991-3.597-4.239-3.597C571.118,951.164,569.48,952.544,569.127,954.76"/>
		<polygon style="fill:#606060;" points="593.114,958.389 590.705,960.765 590.705,965.165 585.696,965.165 585.696,941.337 
			590.705,941.337 590.705,954.824 598.027,947.888 604,947.888 596.807,955.209 604.643,965.165 598.573,965.165 		"/>
		<path style="fill:#606060;" d="M511.552,967.514L511.552,967.514l-5.005-5.005c-0.762,0.89-1.668,1.651-2.684,2.247
			c-0.162,0.12-0.326,0.238-0.495,0.348l5.297,5.297c0.797,0.797,2.09,0.797,2.888,0
			C512.349,969.604,512.349,968.311,511.552,967.514"/>
		<path style="fill:#F84D10;" d="M499.972,946.312c0.386-0.303,0.866-0.492,1.395-0.492c0.073,0,0.146,0.004,0.217,0.01
			c-0.375-0.274-0.837-0.436-1.337-0.436c-0.691,0-1.301,0.315-1.718,0.802c-0.089,0-0.175,0.01-0.264,0.013
			c0.069-0.134,0.112-0.284,0.112-0.446c0-0.409-0.25-0.76-0.605-0.908c0.152,0.221,0.242,0.489,0.242,0.778
			c0,0.214-0.053,0.415-0.141,0.596c-4.918,0.351-8.802,4.442-8.802,9.45c0,5.238,4.246,9.484,9.485,9.484
			c5.239,0,9.485-4.246,9.485-9.484C508.042,950.924,504.537,946.997,499.972,946.312 M496.471,948.783
			c0.761,0,1.477,0.196,2.099,0.541c0.654-0.428,1.435-0.676,2.273-0.676c1.244,0,2.359,0.547,3.121,1.411
			c-0.762-0.664-1.757-1.067-2.847-1.067c-0.785,0-1.523,0.21-2.159,0.576c-0.139,0.08-0.273,0.167-0.401,0.262
			c-0.114-0.083-0.233-0.163-0.357-0.235c-0.646-0.383-1.399-0.602-2.205-0.602c-0.525,0-1.028,0.094-1.495,0.266
			C495.092,948.955,495.762,948.783,496.471,948.783 M503.101,956.557c0.201,0.534,0.316,1.109,0.316,1.713
			c0,2.685-2.176,4.86-4.861,4.86c-2.684,0-4.86-2.176-4.86-4.86c0-0.604,0.115-1.179,0.316-1.713
			c-1.085-0.668-1.811-1.863-1.811-3.23c0-2.095,1.699-3.794,3.794-3.794c0.988,0,1.886,0.381,2.561,1c0.675-0.619,1.572-1,2.561-1
			c2.095,0,3.794,1.699,3.794,3.794C504.912,954.694,504.186,955.889,503.101,956.557"/>
		<path style="fill:#444444;" d="M502.916,952.992c0,0.869-0.706,1.576-1.576,1.576c-0.869,0-1.576-0.707-1.576-1.576
			s0.706-1.576,1.576-1.576c0.177,0,0.344,0.03,0.503,0.082c-0.052,0.109-0.079,0.231-0.079,0.358c0,0.478,0.387,0.865,0.865,0.865
			c0.088,0,0.174-0.013,0.256-0.038C502.904,952.782,502.916,952.886,502.916,952.992"/>
		<path style="fill:#444444;" d="M496.947,952.992c0,0.658-0.534,1.192-1.192,1.192c-0.658,0-1.192-0.534-1.192-1.192
			s0.534-1.192,1.192-1.192c0.133,0,0.26,0.022,0.38,0.062c-0.04,0.082-0.06,0.175-0.06,0.271c0,0.361,0.293,0.654,0.654,0.654
			c0.067,0,0.132-0.01,0.193-0.029C496.938,952.833,496.947,952.912,496.947,952.992"/>
		<g>
			<g>
				<rect x="487.589" y="954.337" style="fill:#606060;" width="1.077" height="1.077"/>
				<rect x="508.448" y="954.337" style="fill:#606060;" width="1.077" height="1.077"/>
				<path style="fill:#606060;" d="M509.109,954.778h-0.245c0-5.683-4.624-10.307-10.307-10.307
					c-5.683,0-10.307,4.624-10.307,10.307h-0.245c0-2.819,1.098-5.468,3.091-7.461c1.993-1.993,4.643-3.091,7.461-3.091
					c2.819,0,5.469,1.098,7.462,3.091C508.011,949.31,509.109,951.959,509.109,954.778"/>
			</g>
			<rect x="498.018" y="943.81" style="fill:#606060;" width="1.077" height="1.077"/>
			<rect x="491.163" y="944.226" style="fill:#606060;" width="14.788" height="0.245"/>
			<path style="fill:#606060;" d="M491.555,944.397c0,0.189-0.153,0.343-0.343,0.343c-0.189,0-0.343-0.154-0.343-0.343
				s0.153-0.343,0.343-0.343C491.401,944.054,491.555,944.208,491.555,944.397"/>
			<path style="fill:#606060;" d="M506.294,944.397c0,0.189-0.153,0.343-0.343,0.343c-0.189,0-0.343-0.154-0.343-0.343
				s0.153-0.343,0.343-0.343C506.14,944.054,506.294,944.208,506.294,944.397"/>
		</g>
	</g>
	<path style="display:inline;fill:#606060;" d="M612.624,964.102c0,2.729-4.136,2.729-4.136,0
		C608.487,961.375,612.624,961.375,612.624,964.102z"/>
	<g style="display:inline;">
		<g>
			<path style="fill:#606060;" d="M345.544,952.097l3.102,10.653l3.246-10.653h3.877l-4.94,14.245h-4.078l-1.465-4.193l-1.264-4.74
				l-1.263,4.74l-1.465,4.193h-4.078l-4.968-14.245h3.905l3.246,10.653l3.073-10.653H345.544z"/>
			<path style="fill:#606060;" d="M371.748,952.097l3.102,10.653l3.246-10.653h3.877l-4.94,14.245h-4.078l-1.465-4.193l-1.263-4.74
				l-1.264,4.74l-1.465,4.193h-4.078l-4.968-14.245h3.905l3.246,10.653l3.073-10.653H371.748z"/>
			<path style="fill:#606060;" d="M397.952,952.097l3.102,10.653l3.246-10.653h3.877l-4.94,14.245h-4.078l-1.465-4.193l-1.264-4.74
				l-1.263,4.74l-1.465,4.193h-4.078l-4.968-14.245h3.905l3.246,10.653l3.073-10.653H397.952z"/>
		</g>
		<path style="fill:#606060;" d="M414.09,964.295c0,2.729-4.136,2.729-4.136,0C409.953,961.569,414.09,961.569,414.09,964.295z"/>
		<path style="fill:#606060;" d="M627.243,964.102c-1.637,1.609-3.358,2.24-5.455,2.24c-4.106,0-7.525-2.469-7.525-7.494
			c0-5.025,3.419-7.497,7.525-7.497c2.011,0,3.561,0.575,5.112,2.097l-2.212,2.327c-0.832-0.748-1.866-1.12-2.841-1.12
			c-2.355,0-4.078,1.723-4.078,4.193c0,2.698,1.838,4.134,4.019,4.134c1.12,0,2.24-0.316,3.101-1.176L627.243,964.102z"/>
		<path style="fill:#606060;" d="M643.16,958.962c0,4.078-2.785,7.38-7.38,7.38s-7.352-3.302-7.352-7.38
			c0-4.05,2.815-7.38,7.324-7.38S643.16,954.912,643.16,958.962z M631.931,958.962c0,2.154,1.293,4.165,3.849,4.165
			c2.556,0,3.849-2.011,3.849-4.165c0-2.125-1.494-4.193-3.849-4.193C633.252,954.77,631.931,956.837,631.931,958.962z"/>
		<path style="fill:#606060;" d="M655.001,966.342v-7.581c0-1.868-0.977-3.561-2.902-3.561c-1.894,0-3.014,1.693-3.014,3.561v7.581
			h-3.505v-14.186h3.246l0.26,1.723c0.746-1.436,2.383-1.952,3.732-1.952c1.695,0,3.391,0.69,4.193,2.642
			c1.265-2.011,2.902-2.586,4.74-2.586c4.02,0,6.002,2.472,6.002,6.72v7.639h-3.505v-7.639c0-1.866-0.774-3.447-2.67-3.447
			c-1.894,0-3.073,1.637-3.073,3.505v7.581H655.001z"/>
	</g>
</g>
<g>
</g>
<path d="M506.7,793.4c-61.4,0-118.8-18.5-166.7-50l-116.4,37.2L261.3,668c-36.3-49.9-57.7-111.3-57.7-177.5
	c0-167,135.9-302.9,302.9-302.9s302.9,135.9,302.9,302.9S673.5,793.4,506.5,793.4H506.7L506.7,793.4z M506.7,130.2
	c-198.9,0-360.2,161.4-360.2,360.3c0,68,18.9,131.8,51.6,186.1l-65,193.2l199.4-63.9c53.3,29.5,113.2,44.9,174.2,44.9
	c198.9,0,360.2-161.3,360.2-360.2C866.9,291.6,705.6,130.2,506.7,130.2z"/>
<linearGradient id="SVGID_00000036232424722115006810000006502123635619360679_" gradientUnits="userSpaceOnUse" x1="203.8" y1="490.5" x2="809.7999" y2="490.5">
	<stop  offset="0" style="stop-color:#F5C230"/>
	<stop  offset="0" style="stop-color:#ECC440"/>
	<stop  offset="0.3198" style="stop-color:#FFFA8A"/>
	<stop  offset="0.6802" style="stop-color:#DDAC17"/>
	<stop  offset="1" style="stop-color:#FFFF95"/>
</linearGradient>
<path style="fill:url(#SVGID_00000036232424722115006810000006502123635619360679_);" d="M506.7,187.6
	c-167,0-302.9,135.9-302.9,302.9c0,66.2,21.4,127.7,57.7,177.5l-37.8,112.6l116.5-37.2c47.9,31.7,105.1,50,166.7,50
	c167,0,302.9-135.9,302.9-302.9S673.9,187.6,506.9,187.6L506.7,187.6L506.7,187.6z"/>
<path d="M422.1,341.4c-5.9-14.1-10.3-14.6-19.2-15c-3.4-0.2-6.8-0.3-10.2-0.4c-11.6,0-23.7,3.4-31,10.9c-8.9,9.1-31,30.3-31,73.7
	s31.7,85.5,36,91.4c4.5,5.9,61.8,96.3,150.8,133.2c69.6,28.8,90.3,26.2,106.1,22.8c23.1-5,52.2-22.1,59.5-42.7
	c7.3-20.7,7.3-38.3,5.2-42s-8-5.9-16.9-10.3c-8.9-4.5-52.2-25.8-60.4-28.7c-8-3-15.7-2-21.7,6.6c-8.5,11.9-16.9,24-23.7,31.3
	c-5.3,5.7-14.1,6.4-21.4,3.4c-9.8-4.1-37.2-13.7-71.1-43.8c-26.2-23.3-44-52.3-49.1-61.1c-5.2-8.9-0.5-14.1,3.6-18.9
	c4.5-5.5,8.7-9.4,13.2-14.6s6.9-7.8,9.8-13.9c3-5.9,0.9-11.9-1.2-16.4C447.2,402.5,429.4,359.1,422.1,341.4L422.1,341.4z"/>
</svg>
